<?xml version="1.0" encoding="UTF-8"?>
<svg version="1.1" xmlns="http://www.w3.org/2000/svg" width="225" height="225">
<path d="M0 0 C74.25 0 148.5 0 225 0 C225 74.25 225 148.5 225 225 C150.75 225 76.5 225 0 225 C0 150.75 0 76.5 0 0 Z " fill="#FDFDFD" transform="translate(0,0)"/>
<path d="M0 0 C10.11343221 7.56821844 18.37324425 18.01130237 20.34375 30.75390625 C21.27442211 42.29867223 21.23254758 53.91276685 14.34375 63.75390625 C10.44379865 60.5702725 6.7760272 57.31670509 3.34375 53.62890625 C2.745625 52.98695312 2.1475 52.345 1.53125 51.68359375 C0.34375 49.75390625 0.34375 49.75390625 0.640625 47.8046875 C0.87265625 47.12792969 1.1046875 46.45117188 1.34375 45.75390625 C2.1876194 36.357745 0.30512436 28.20562419 -5.65625 20.75390625 C-11.50228908 14.80581661 -17.49512455 11.41733797 -25.91137695 11.28735352 C-26.99165161 11.30173462 -26.99165161 11.30173462 -28.09375 11.31640625 C-29.21753052 11.32015259 -29.21753052 11.32015259 -30.36401367 11.32397461 C-36.09618709 11.464699 -39.73094585 12.76009393 -44.65625 15.75390625 C-48.91567504 15.611629 -51.1012817 12.60709698 -53.90625 9.69140625 C-54.79828125 8.77230469 -55.6903125 7.85320313 -56.609375 6.90625 C-57.28484375 6.19597656 -57.9603125 5.48570313 -58.65625 4.75390625 C-56.22270637 -1.36963016 -50.04875093 -3.70975916 -44.3359375 -6.296875 C-29.60961245 -11.5634082 -12.87716069 -8.34088817 0 0 Z " fill="#1F72B8" transform="translate(139.65625,44.24609375)"/>
<path d="M0 0 C3.90285767 1.58667578 6.33520982 4.13350481 9.25 7.125 C10.14203125 8.03507812 11.0340625 8.94515625 11.953125 9.8828125 C12.62859375 10.58148438 13.3040625 11.28015625 14 12 C13.65066406 12.68707031 13.30132812 13.37414062 12.94140625 14.08203125 C12.48636719 14.98308594 12.03132813 15.88414063 11.5625 16.8125 C11.11003906 17.70582031 10.65757813 18.59914063 10.19140625 19.51953125 C7.00791184 26.14746223 7.01624663 33.09857808 8.80078125 40.17578125 C11.8343332 48.37992347 16.37748148 53.63589896 23.8671875 58.1171875 C28.24248888 60.08888984 32.11458389 60.0051464 36.875 60 C43.04505073 60.28528192 45.59075237 61.76143918 49.75 66.3125 C52.24124665 69.40181084 54.379841 72.37187799 56 76 C46.83469132 81.28767808 31.28915771 80.47010709 21.2734375 78.12890625 C9.25270739 73.39205524 -1.37445784 64.11592331 -6.875 52.375 C-9.91591244 45.29371438 -11.36931255 38.84907868 -11.3125 31.1875 C-11.30686035 30.39214844 -11.3012207 29.59679687 -11.29541016 28.77734375 C-11.07316028 18.00372586 -7.81053327 7.81053327 0 0 Z " fill="#1E72B8" transform="translate(75,53)"/>
<path d="M0 0 C3.18653222 -0.20521899 6.37135052 -0.32822933 9.5625 -0.4375 C10.45775391 -0.49615234 11.35300781 -0.55480469 12.27539062 -0.61523438 C16.10819175 -0.71351133 18.88448746 -0.77652745 22.10009766 1.46191406 C23.87659032 3.22855556 25.44492407 5.03751416 27 7 C28.07901241 8.21219337 29.16185055 9.42100194 30.25 10.625 C31.50401269 12.07988429 32.75334041 13.53881008 34 15 C34.45552246 15.53061035 34.91104492 16.0612207 35.38037109 16.60791016 C36.90257713 18.38176128 38.42063031 20.15908432 39.9375 21.9375 C40.43475586 22.51773926 40.93201172 23.09797852 41.44433594 23.69580078 C45 27.88471642 45 27.88471642 45 29 C26.64451816 30.63193314 26.64451816 30.63193314 20.84765625 27.0546875 C18.61363814 24.48694085 16.80049756 21.88493517 15 19 C13.83977599 17.62239198 12.65344622 16.26618296 11.4375 14.9375 C10.88835937 14.30457031 10.33921875 13.67164062 9.7734375 13.01953125 C8.4604429 11.52433695 7.12947513 10.04488349 5.7890625 8.57421875 C5.05429688 7.76597656 4.31953125 6.95773438 3.5625 6.125 C2.54349609 5.01511719 2.54349609 5.01511719 1.50390625 3.8828125 C0 2 0 2 0 0 Z " fill="#1E72B8" transform="translate(115,98)"/>
<path d="M0 0 C3.51578585 1.37574229 4.71719707 2.59464913 6.875 5.6875 C8.72126803 11.12373364 7.62712055 15.74050623 5.625 20.9375 C4 24 4 24 1 25 C0.67 24.67 0.34 24.34 0 24 C-1.56215818 23.94704549 -3.12478668 23.90770252 -4.6875 23.875 C-8.64784268 23.49998907 -10.84279622 22.89562695 -13.625 20 C-16.19590187 16.45040254 -16.76760322 13.41666069 -16.46484375 9.08203125 C-14.56716493 0.58234374 -7.43160299 -0.82427991 0 0 Z " fill="#0B0B0B" transform="translate(80,148)"/>
<path d="M0 0 C1.65 0 3.3 0 5 0 C5 2.31 5 4.62 5 7 C5.49628906 6.4946875 5.99257812 5.989375 6.50390625 5.46875 C12.74340108 -0.49843291 12.74340108 -0.49843291 17 -0.4375 C17.99 -0.293125 18.98 -0.14875 20 0 C20 0.66 20 1.32 20 2 C18.3203125 3.62109375 18.3203125 3.62109375 16.125 5.4375 C13.53806278 7.58400884 11.88815626 9.16776562 10 12 C10.7940625 12.78246094 11.588125 13.56492188 12.40625 14.37109375 C13.43763021 15.39309778 14.46887316 16.41524034 15.5 17.4375 C16.02464844 17.95376953 16.54929688 18.47003906 17.08984375 19.00195312 C18.41224552 20.31576787 19.70835568 21.65593505 21 23 C21 23.33 21 23.66 21 24 C14.01057082 24.7230444 14.01057082 24.7230444 11.1328125 22.6640625 C9.67798334 21.18138972 8.32980438 19.59576526 7 18 C6.67 19.98 6.34 21.96 6 24 C4.02 24 2.04 24 0 24 C0 16.08 0 8.16 0 0 Z " fill="#0B0B0B" transform="translate(140,148)"/>
<path d="M0 0 C1.98 0 3.96 0 6 0 C6.33 5.61 6.66 11.22 7 17 C8.98 17 10.96 17 13 17 C13 11.39 13 5.78 13 0 C14.65 0 16.3 0 18 0 C18.10829314 2.89684158 18.18743954 5.78961019 18.25 8.6875 C18.30027344 9.91243164 18.30027344 9.91243164 18.3515625 11.16210938 C18.41862016 15.30292007 18.35846774 17.4274885 16.109375 21.01953125 C13.61112424 23.36511113 12.58355472 23.9221927 9.1875 24.375 C4.95970586 23.87761245 3.67182436 22.20618923 1 19 C-0.65497356 15.69005287 -0.10084335 12.00877 -0.0625 8.375 C-0.05798828 7.57320312 -0.05347656 6.77140625 -0.04882812 5.9453125 C-0.03703168 3.96350994 -0.01909605 1.98174567 0 0 Z " fill="#0D0D0D" transform="translate(89,148)"/>
<path d="M0 0 C0.76183594 -0.00515625 1.52367187 -0.0103125 2.30859375 -0.015625 C4.77693018 0.2752708 6.420186 1.02024344 8.5625 2.25 C6.8125 6.125 6.8125 6.125 4.5625 7.25 C3.4075 7.064375 2.2525 6.87875 1.0625 6.6875 C-0.0925 6.543125 -1.2475 6.39875 -2.4375 6.25 C-4.81744368 8.19332332 -4.81744368 8.19332332 -4.6875 11.75 C-4.81744368 15.30667668 -4.81744368 15.30667668 -2.4375 17.25 C-0.22677023 17.49253813 -0.22677023 17.49253813 2.1875 17.375 C3.00476563 17.35695312 3.82203125 17.33890625 4.6640625 17.3203125 C5.60378906 17.28550781 5.60378906 17.28550781 6.5625 17.25 C7.2225 18.57 7.8825 19.89 8.5625 21.25 C6.0732319 23.63969738 4.66143865 24.23717462 1.1875 24.6875 C-4.0481091 24.05561614 -6.96670622 22.01495253 -10.3125 18 C-11.81987577 14.31530366 -12.16841968 11.1747209 -11.4375 7.25 C-8.49508984 2.58272872 -5.6218799 -0.03792162 0 0 Z " fill="#0F0F0F" transform="translate(129.4375,147.75)"/>
<path d="M0 0 C1.65 0 3.3 0 5 0 C5 7.92 5 15.84 5 24 C3.35 24 1.7 24 0 24 C0 16.08 0 8.16 0 0 Z " fill="#030303" transform="translate(111,148)"/>
<path d="M0 0 C2 2 2 2 2.125 5.625 C2.08375 6.73875 2.0425 7.8525 2 9 C1.34 9 0.68 9 0 9 C-0.33 7.68 -0.66 6.36 -1 5 C-2.65 5.66 -4.3 6.32 -6 7 C-5.34 8.65 -4.68 10.3 -4 12 C-6.375 11.6875 -6.375 11.6875 -9 11 C-11 8 -11 8 -10.8125 5 C-10 2 -10 2 -8.875 0.0625 C-5.80365094 -1.67793113 -3.31631617 -0.78385655 0 0 Z " fill="#E8E8E8" transform="translate(80,154)"/>
<path d="M0 0 C2.97 0 5.94 0 9 0 C9.66 2.31 10.32 4.62 11 7 C10.01 7.495 10.01 7.495 9 8 C8.67 7.34 8.34 6.68 8 6 C7.67 6.66 7.34 7.32 7 8 C4.69 8 2.38 8 0 8 C0 5.36 0 2.72 0 0 Z " fill="#686868" transform="translate(145,177)"/>
<path d="M0 0 C0.66 0 1.32 0 2 0 C2 0.66 2 1.32 2 2 C2.66 2 3.32 2 4 2 C4 1.34 4 0.68 4 0 C10.15234375 -0.09765625 10.15234375 -0.09765625 12 0 C13 1 13 1 13.125 3.5 C13 6 13 6 12 7 C10.33382885 7.04063832 8.66611905 7.042721 7 7 C6.67 5.68 6.34 4.36 6 3 C5.34 3 4.68 3 4 3 C4 4.32 4 5.64 4 7 C3.34 7 2.68 7 2 7 C1.34 4.69 0.68 2.38 0 0 Z " fill="#494949" transform="translate(64,178)"/>
<path d="M0 0 C0.66 0 1.32 0 2 0 C2 1.65 2 3.3 2 5 C2.66 5 3.32 5 4 5 C4.144375 4.360625 4.28875 3.72125 4.4375 3.0625 C5 1 5 1 6 0 C7.66617115 -0.04063832 9.33388095 -0.042721 11 0 C11.625 2.375 11.625 2.375 12 5 C10 7 10 7 7.6171875 7.1953125 C6.71226563 7.17210937 5.80734375 7.14890625 4.875 7.125 C3.50988281 7.09792969 3.50988281 7.09792969 2.1171875 7.0703125 C1.41851562 7.04710937 0.71984375 7.02390625 0 7 C0 4.69 0 2.38 0 0 Z " fill="#2F2F2F" transform="translate(100,178)"/>
<path d="M0 0 C1.2065625 0.0309375 1.2065625 0.0309375 2.4375 0.0625 C0.4575 1.0525 0.4575 1.0525 -1.5625 2.0625 C-1.5625 3.0525 -1.5625 4.0425 -1.5625 5.0625 C-0.9025 5.3925 -0.2425 5.7225 0.4375 6.0625 C0.4375 5.0725 0.4375 4.0825 0.4375 3.0625 C1.4275 3.3925 2.4175 3.7225 3.4375 4.0625 C4.0975 2.7425 4.7575 1.4225 5.4375 0.0625 C6.0975 0.0625 6.7575 0.0625 7.4375 0.0625 C8.0975 2.3725 8.7575 4.6825 9.4375 7.0625 C6.9625 6.0725 6.9625 6.0725 4.4375 5.0625 C4.4375 5.7225 4.4375 6.3825 4.4375 7.0625 C2.10455225 7.10491723 -0.22952567 7.10342937 -2.5625 7.0625 C-3.5625 6.0625 -3.5625 6.0625 -3.6875 3.5625 C-3.51717518 0.15600356 -3.41884482 0.08338646 0 0 Z " fill="#414141" transform="translate(116.5625,177.9375)"/>
<path d="M0 0 C2.31 0.33 4.62 0.66 7 1 C6.01 1.33 5.02 1.66 4 2 C4 2.66 4 3.32 4 4 C4.99 4 5.98 4 7 4 C7.33 5.32 7.66 6.64 8 8 C7.01 7.34 6.02 6.68 5 6 C4.67 6.66 4.34 7.32 4 8 C1.69 8 -0.62 8 -3 8 C-2.34 7.34 -1.68 6.68 -1 6 C-0.60235737 4.01178687 -0.26224651 2.01055661 0 0 Z " fill="#5A5A5A" transform="translate(83,177)"/>
<path d="M0 0 C0.66 0 1.32 0 2 0 C2 0.66 2 1.32 2 2 C2.99 2 3.98 2 5 2 C5.33 1.34 5.66 0.68 6 0 C6 2.31 6 4.62 6 7 C5.67 6.01 5.34 5.02 5 4 C4.01 4 3.02 4 2 4 C2 4.99 2 5.98 2 7 C1.34 7 0.68 7 0 7 C0 4.69 0 2.38 0 0 Z " fill="#454545" transform="translate(137,178)"/>
<path d="M0 0 C1.32 0 2.64 0 4 0 C4.33 2.31 4.66 4.62 5 7 C4.34 7 3.68 7 3 7 C2.67 6.34 2.34 5.68 2 5 C1.34 5.66 0.68 6.32 0 7 C0 4.69 0 2.38 0 0 Z " fill="#4C4C4C" transform="translate(151,178)"/>
<path d="M0 0 C6.6 0 13.2 0 20 0 C20 0.33 20 0.66 20 1 C17.22922802 1.16774403 14.45839073 1.33423936 11.6875 1.5 C10.50897461 1.57154297 10.50897461 1.57154297 9.30664062 1.64453125 C8.1706543 1.71220703 8.1706543 1.71220703 7.01171875 1.78125 C6.31522217 1.82314453 5.61872559 1.86503906 4.90112305 1.90820312 C3.26903034 1.98700971 1.63399421 2 0 2 C0 1.34 0 0.68 0 0 Z " fill="#2E7ABC" transform="translate(115,98)"/>
<path d="M0 0 C0.66 0 1.32 0 2 0 C2 1.65 2 3.3 2 5 C2.66 5 3.32 5 4 5 C4.33 4.01 4.66 3.02 5 2 C5 3.65 5 5.3 5 7 C3.35 7 1.7 7 0 7 C0 4.69 0 2.38 0 0 Z " fill="#616161" transform="translate(100,178)"/>
<path d="M0 0 C1.98 0.495 1.98 0.495 4 1 C3.01 1.495 3.01 1.495 2 2 C2.66 2.33 3.32 2.66 4 3 C3.67 4.32 3.34 5.64 3 7 C2.01 6.67 1.02 6.34 0 6 C0.66 6 1.32 6 2 6 C2 5.34 2 4.68 2 4 C1.01 3.67 0.02 3.34 -1 3 C-0.67 2.01 -0.34 1.02 0 0 Z " fill="#494949" transform="translate(95,178)"/>
<path d="M0 0 C1.32 0 2.64 0 4 0 C4 1.65 4 3.3 4 5 C2.68 5 1.36 5 0 5 C0 3.35 0 1.7 0 0 Z " fill="#DDDDDD" transform="translate(146,179)"/>
<path d="M0 0 C0.99 0 1.98 0 3 0 C3 1.65 3 3.3 3 5 C1.68 4.67 0.36 4.34 -1 4 C-0.67 2.68 -0.34 1.36 0 0 Z " fill="#E7E7E7" transform="translate(107,179)"/>
<path d="M0 0 C1.32 0.33 2.64 0.66 4 1 C3.67 2.32 3.34 3.64 3 5 C2.01 4.67 1.02 4.34 0 4 C0 2.68 0 1.36 0 0 Z " fill="#EAEAEA" transform="translate(72,179)"/>
</svg>
